<?xml version="1.0" standalone="no"?>
<!DOCTYPE svg PUBLIC "-//W3C//DTD SVG 20010904//EN"
 "http://www.w3.org/TR/2001/REC-SVG-20010904/DTD/svg10.dtd">
<svg version="1.0" xmlns="http://www.w3.org/2000/svg"
 width="128.000000pt" height="128.000000pt" viewBox="0 0 128.000000 128.000000"
 preserveAspectRatio="xMidYMid meet">
<metadata>
Created by potrace 1.11, written by Peter Selinger 2001-2013
</metadata>
<g transform="translate(0.000000,128.000000) scale(0.100000,-0.100000)"
fill="#000000" stroke="none">
<path d="M1142 1211 c2 -19 -4 -24 -12 -11 -6 10 -10 11 -10 3 0 -7 -5 -13
-11 -13 -5 0 -7 5 -4 10 3 6 4 10 1 10 -3 0 -10 -10 -17 -21 -9 -17 -8 -20 2
-14 8 5 10 4 5 -4 -6 -9 -11 -9 -24 1 -14 12 -14 10 -3 -10 12 -22 11 -23 -7
-13 -16 8 -19 7 -18 -7 0 -9 -3 -19 -9 -21 -5 -3 -19 -16 -29 -30 -33 -44 -39
-48 -33 -21 6 23 5 23 -5 -2 -7 -16 -16 -28 -21 -28 -4 0 -5 -4 -2 -10 3 -5 2
-10 -2 -10 -5 0 -18 -7 -29 -16 -10 -8 -12 -12 -4 -8 13 7 13 5 2 -8 -7 -9
-22 -15 -34 -13 -17 4 -18 2 -6 -12 9 -12 9 -15 1 -9 -9 5 -13 1 -13 -11 0
-15 -2 -16 -10 -3 -9 15 -11 13 -14 -12 0 -7 -12 -15 -25 -16 -19 -3 -21 -6
-10 -13 11 -7 11 -9 -3 -9 -10 0 -18 -5 -18 -11 0 -5 6 -7 13 -3 9 6 8 3 -1
-8 -8 -10 -21 -14 -30 -11 -9 3 -14 3 -10 -1 11 -12 -29 -49 -43 -41 -7 5 -10
4 -6 -2 4 -6 -2 -22 -13 -35 -11 -14 -17 -28 -13 -31 3 -3 -7 -4 -23 0 -16 3
-35 6 -41 6 -7 0 -11 2 -8 5 2 2 -3 11 -11 19 -8 9 -13 21 -11 28 3 6 -1 12
-8 12 -7 0 -11 -7 -8 -16 3 -12 2 -12 -7 2 -6 9 -8 22 -4 29 4 7 3 8 -5 4 -15
-10 -53 32 -44 48 4 6 -2 4 -12 -4 -11 -9 -16 -10 -11 -2 4 6 2 12 -3 12 -6 0
-11 5 -11 11 0 5 5 7 12 3 7 -4 8 -3 4 4 -4 6 -13 9 -20 6 -17 -6 -76 54 -76
78 0 11 -3 18 -7 16 -10 -5 -62 49 -55 56 3 4 -4 6 -14 6 -29 0 -107 78 -101
101 4 15 2 17 -13 9 -28 -15 -34 -12 -19 7 10 11 10 14 2 9 -7 -4 -13 -3 -13
1 0 5 -9 9 -20 10 -11 1 -20 -4 -20 -10 0 -7 -4 -6 -11 3 -9 12 -10 10 -6 -8
5 -20 3 -21 -11 -10 -13 11 -15 11 -10 -3 4 -9 2 -21 -4 -27 -8 -8 -7 -13 5
-18 9 -3 17 -12 17 -20 0 -13 12 -18 32 -15 4 0 5 -6 2 -14 -4 -9 0 -15 9 -15
9 0 19 -5 23 -12 5 -7 3 -8 -6 -3 -8 5 -11 4 -7 -2 4 -6 21 -16 38 -23 l31
-13 -24 -14 c-12 -7 -16 -13 -8 -12 34 3 60 -2 60 -11 0 -5 -8 -6 -17 -3 -15
6 -16 5 -3 -9 8 -9 17 -14 19 -12 6 6 31 -24 31 -38 0 -10 3 -9 10 2 8 13 10
13 10 -2 0 -12 6 -16 22 -13 16 4 19 2 10 -7 -16 -16 -15 -31 1 -25 8 3 20 1
28 -5 11 -8 11 -9 -3 -4 -10 3 -20 1 -23 -5 -4 -5 -3 -9 2 -8 21 4 32 -3 38
-21 3 -11 13 -20 21 -20 8 0 14 -5 14 -11 0 -5 4 -8 9 -4 5 3 12 1 16 -5 4 -6
12 -7 18 -3 7 3 4 -3 -7 -15 -18 -21 -18 -21 1 -18 11 3 26 0 34 -6 11 -8 10
-9 -3 -4 -10 3 -18 1 -18 -4 0 -6 7 -10 16 -10 11 0 14 -5 10 -16 -5 -14 -4
-15 9 -4 13 11 14 10 9 -4 -7 -18 6 -21 24 -6 6 6 10 7 7 4 -2 -4 0 -15 6 -25
7 -15 6 -17 -6 -13 -8 3 -12 11 -8 17 3 6 1 7 -6 3 -8 -6 -9 -12 -2 -20 6 -7
7 -17 3 -21 -4 -5 -1 -5 6 -1 6 4 12 2 12 -3 0 -6 -6 -11 -14 -11 -8 0 -18 -5
-22 -12 -4 -7 -3 -8 4 -4 8 5 10 2 6 -8 -3 -9 -9 -15 -12 -14 -27 3 -34 -2
-22 -18 8 -8 9 -14 4 -13 -18 4 -44 -13 -37 -25 4 -6 -1 -4 -12 4 -17 14 -17
13 -10 -10 7 -22 6 -23 -8 -12 -12 10 -17 10 -23 1 -5 -8 -3 -9 6 -4 8 5 11 3
8 -6 -3 -8 -12 -13 -21 -13 -10 1 -14 -5 -12 -18 3 -15 0 -18 -12 -14 -13 5
-14 4 -3 -9 9 -11 9 -15 1 -15 -6 0 -17 -11 -23 -25 -6 -13 -19 -27 -30 -30
-10 -4 -18 -11 -18 -17 0 -5 -46 -57 -103 -114 -62 -64 -102 -112 -101 -123 1
-14 -4 -18 -17 -16 -11 2 -19 -1 -19 -6 0 -6 -5 -7 -12 -3 -6 4 -8 3 -5 -3 4
-6 21 -10 38 -9 16 1 33 -2 36 -7 3 -4 12 -2 21 5 19 16 31 17 50 4 11 -7 12
-4 2 13 -6 12 -15 19 -21 16 -5 -4 -9 -3 -9 0 0 10 190 195 200 195 5 0 12 9
15 20 3 11 11 20 18 20 6 0 22 10 36 23 21 18 23 19 11 2 -15 -20 -14 -20 8
-1 17 15 19 22 10 28 -9 5 -10 8 -1 8 6 0 15 -5 18 -10 9 -15 25 -2 19 15 -4
10 4 19 22 26 16 7 32 12 35 11 4 -1 5 8 2 18 -3 12 0 20 6 20 7 0 9 -5 5 -12
-4 -7 -3 -8 4 -4 6 4 9 13 6 21 -4 10 3 18 20 25 29 11 36 22 9 14 -14 -4 -13
-2 2 7 24 16 56 19 48 6 -4 -6 3 -8 15 -5 12 4 19 2 16 -3 -3 -5 2 -12 10 -15
9 -3 16 -15 16 -26 0 -17 2 -18 16 -8 8 8 14 9 13 4 -2 -5 1 -19 5 -32 6 -18
11 -21 21 -12 11 9 12 7 8 -9 -3 -13 -1 -21 6 -21 7 0 9 -5 5 -12 -4 -7 -3 -8
5 -4 9 6 9 12 -1 24 -12 15 -11 16 5 3 9 -7 17 -23 17 -35 0 -17 2 -18 10 -6
5 8 10 10 10 5 0 -6 14 -19 30 -29 47 -27 248 -224 262 -256 8 -20 15 -25 20
-17 6 9 8 9 8 0 0 -7 7 -13 15 -13 8 0 14 3 14 8 -1 4 0 9 1 12 12 33 3 49
-63 116 -126 126 -184 188 -190 207 -4 11 -12 15 -18 11 -8 -4 -9 -3 -5 4 4 7
3 12 -1 12 -5 0 -14 10 -22 23 l-14 22 24 -20 24 -20 -19 23 c-11 12 -25 22
-32 22 -7 0 -16 5 -20 12 -5 7 -3 8 6 3 9 -5 11 -4 6 3 -4 7 -2 12 5 12 7 0
10 3 7 6 -4 3 -15 1 -27 -5 -17 -10 -19 -8 -16 10 4 18 2 19 -12 7 -10 -7 -14
-8 -10 -1 4 6 2 13 -3 15 -6 2 -12 13 -12 24 -1 11 -8 21 -15 21 -10 0 -10 -3
0 -15 10 -13 9 -14 -10 -2 -16 11 -19 18 -12 31 6 12 5 20 -3 25 -7 5 -8 3 -3
-7 8 -12 6 -12 -8 0 -20 16 -22 22 -4 19 6 -2 11 3 9 11 -2 9 4 12 18 8 11 -3
18 -1 15 3 -3 5 0 12 6 15 5 4 8 14 4 22 -5 14 -3 14 12 2 11 -9 14 -10 9 -1
-4 6 -2 12 3 12 6 0 11 7 11 15 0 8 5 16 10 16 6 1 14 2 19 3 5 0 13 5 18 10
4 5 3 6 -3 3 -7 -4 -14 0 -17 8 -4 10 -1 12 10 8 12 -5 14 -3 8 8 -7 11 -5 11
10 -1 11 -9 16 -10 11 -2 -4 6 -2 12 3 12 6 0 11 7 11 15 0 14 13 20 34 16 5
-1 3 5 -4 14 -11 13 -10 15 2 10 10 -4 25 6 42 27 14 18 34 41 43 51 12 13 13
17 3 17 -7 0 -10 3 -7 6 4 4 14 1 24 -7 11 -9 14 -10 9 -1 -4 7 -2 12 5 12 6
0 9 8 6 19 -3 12 1 18 12 17 9 0 15 4 14 11 -2 8 4 10 14 6 11 -4 14 -3 9 5
-6 11 5 16 26 13 4 0 5 6 2 14 -9 23 5 38 22 24 12 -10 13 -9 8 6 -5 13 -4 16
5 11 9 -6 11 0 8 23 -3 18 -1 29 4 25 5 -3 7 -9 4 -14 -3 -5 -2 -11 3 -14 7
-4 8 48 2 64 -1 3 -2 9 -1 13 1 5 -3 6 -9 2 -8 -5 -7 -11 1 -21 15 -18 2 -18
-16 0 -9 8 -10 17 -4 23 6 6 4 10 -5 10 -8 0 -15 -3 -14 -6z m-792 -186 c11
-13 10 -14 -4 -9 -9 3 -16 10 -16 15 0 13 6 11 20 -6z m630 -108 c0 -2 -9 -12
-20 -22 -24 -21 -27 -14 -4 9 15 15 24 20 24 13z m-565 -95 c-3 -3 -11 0 -18
7 -9 10 -8 11 6 5 10 -3 15 -9 12 -12z m360 -101 c3 -5 1 -12 -5 -16 -5 -3
-10 1 -10 9 0 18 6 21 15 7z m-240 -252 c-4 -5 -12 -9 -18 -8 -9 0 -8 2 1 6 6
2 9 10 6 15 -4 7 -2 8 5 4 6 -4 9 -12 6 -17z m-407 -374 c-3 -3 -9 2 -12 12
-6 14 -5 15 5 6 7 -7 10 -15 7 -18z"/>
<path d="M254 1122 c34 -36 56 -46 56 -25 0 4 -3 3 -7 0 -10 -10 -53 34 -46
47 3 6 3 8 -2 4 -4 -4 -15 -2 -24 4 -9 7 2 -7 23 -30z"/>
<path d="M187 1019 c7 -7 15 -10 18 -7 3 3 -2 9 -12 12 -14 6 -15 5 -6 -5z"/>
<path d="M400 975 c0 -1 15 -14 32 -31 27 -23 29 -24 10 -3 -12 14 -20 28 -17
31 3 2 -2 5 -10 5 -8 0 -15 -1 -15 -2z"/>
<path d="M670 780 c-6 -11 -16 -17 -22 -14 -7 4 -8 3 -4 -5 4 -6 12 -9 17 -6
11 7 32 45 25 45 -3 0 -10 -9 -16 -20z"/>
<path d="M430 780 c0 -5 5 -10 11 -10 5 0 7 5 4 10 -3 6 -8 10 -11 10 -2 0 -4
-4 -4 -10z"/>
<path d="M673 525 c0 -8 4 -12 8 -9 4 2 10 -2 12 -8 4 -8 6 -9 6 -2 1 6 -5 17
-12 23 -10 8 -14 7 -14 -4z"/>
<path d="M523 158 c-12 -21 -14 -50 -3 -63 7 -8 5 -12 -5 -12 -8 0 -11 5 -8
10 3 6 1 7 -5 3 -9 -5 -9 0 -3 17 11 27 6 37 -18 37 -10 0 -12 -3 -5 -8 13 -9
14 -42 1 -42 -5 0 -7 6 -4 14 3 8 -1 17 -10 20 -11 4 -14 2 -10 -9 4 -8 1 -17
-5 -21 -7 -5 -8 -2 -3 6 6 9 4 11 -5 5 -9 -6 -10 -1 -5 16 l7 24 -17 -23 c-12
-16 -20 -20 -29 -13 -8 7 -12 4 -13 -12 -1 -12 1 -17 5 -12 10 14 39 17 47 5
3 -5 17 -10 31 -10 13 0 24 -4 24 -9 0 -5 13 -8 29 -7 16 0 27 4 25 8 -3 5 2
8 11 8 12 0 15 -5 11 -17 -4 -11 1 -9 13 6 16 21 19 22 28 7 5 -9 19 -18 31
-21 20 -3 21 -2 10 18 -10 20 -10 21 6 7 20 -15 49 -23 41 -10 -3 4 1 10 8 13
20 7 27 7 25 0 -2 -5 -6 -7 -10 -5 -5 1 -8 -2 -8 -7 0 -6 9 -9 20 -8 11 1 20
6 20 13 0 6 7 17 15 24 20 17 11 28 -22 24 -33 -3 -66 13 -57 28 4 7 3 8 -5 4
-6 -4 -9 -11 -7 -15 3 -4 -5 -7 -17 -7 -12 1 -25 8 -29 16 -6 13 -7 13 -7 -1
-1 -9 -10 -19 -22 -22 -13 -3 -19 -1 -16 6 3 7 10 11 16 9 7 -1 10 2 6 8 -4 7
-11 7 -18 2 -7 -5 -25 -12 -41 -16 -26 -6 -28 -5 -17 8 8 9 11 16 8 16 -3 0
-9 -6 -14 -12z m45 -32 c-2 -1 -10 -7 -19 -14 -13 -9 -16 -9 -16 3 0 8 4 12 9
9 4 -3 8 0 8 6 0 6 5 8 11 5 6 -4 9 -8 7 -9z"/>
<path d="M726 158 c5 -8 2 -9 -10 -5 -9 4 -15 3 -11 -2 3 -6 14 -9 25 -8 14 1
16 4 8 14 -13 16 -22 17 -12 1z"/>
<path d="M765 160 c-3 -5 -1 -10 4 -10 6 0 11 5 11 10 0 6 -2 10 -4 10 -3 0
-8 -4 -11 -10z"/>
<path d="M832 151 c2 -7 -7 -15 -20 -17 -16 -3 -21 0 -16 8 4 8 3 10 -2 5 -5
-5 -9 -12 -9 -15 -1 -4 -6 -17 -13 -28 -15 -28 -5 -37 22 -19 28 20 41 19 25
-2 -7 -10 -1 -7 14 6 27 24 38 17 15 -9 -11 -12 -10 -12 3 -2 10 8 19 8 27 2
9 -7 9 -7 2 2 -16 19 -12 32 5 18 13 -11 14 -10 9 4 -4 10 -12 15 -20 12 -12
-5 -43 22 -36 31 2 3 1 8 -3 11 -4 4 -5 1 -3 -7z m16 -30 c2 -1 0 -6 -4 -12
-4 -8 -9 -8 -17 0 -8 8 -18 4 -36 -12 l-26 -22 23 26 c20 23 32 27 60 20z"/>
<path d="M396 138 c3 -5 10 -6 15 -3 13 9 11 12 -6 12 -8 0 -12 -4 -9 -9z"/>
<path d="M870 140 c-13 -8 -12 -10 3 -10 9 0 17 5 17 10 0 12 -1 12 -20 0z"/>
<path d="M206 122 c-3 -6 1 -15 8 -21 9 -7 17 -8 20 -2 7 10 24 10 43 -2 6 -4
19 0 27 9 23 22 20 31 -3 10 -12 -11 -21 -14 -26 -7 -3 6 -1 11 6 11 7 0 10 3
6 6 -3 3 -12 2 -19 -2 -18 -12 -31 -12 -45 -2 -6 5 -14 5 -17 0z"/>
<path d="M335 119 c-4 -6 -5 -12 -2 -15 2 -3 7 2 10 11 7 17 1 20 -8 4z"/>
<path d="M356 113 c-6 -14 -5 -15 5 -6 7 7 10 15 7 18 -3 3 -9 -2 -12 -12z"/>
<path d="M935 120 c-3 -5 -1 -10 4 -10 6 0 11 5 11 10 0 6 -2 10 -4 10 -3 0
-8 -4 -11 -10z"/>
<path d="M1019 117 c7 -9 17 -15 21 -12 5 3 11 -1 13 -7 4 -10 6 -10 6 0 1 10
6 10 22 1 17 -9 20 -8 14 2 -6 9 -3 11 8 6 24 -9 21 0 -4 14 -13 6 -19 7 -15
1 8 -13 -42 -10 -64 3 -13 8 -13 6 -1 -8z"/>
<path d="M1197 119 c-9 -6 -15 -14 -12 -18 7 -13 48 -8 53 7 2 8 -2 10 -14 5
-12 -4 -15 -3 -10 5 9 14 6 14 -17 1z"/>
<path d="M993 105 c0 -8 4 -15 9 -15 4 0 8 4 8 9 0 6 -4 12 -8 15 -5 3 -9 -1
-9 -9z"/>
<path d="M410 86 c0 -2 7 -7 16 -10 8 -3 12 -2 9 4 -6 10 -25 14 -25 6z"/>
</g>
</svg>
